# xmcd CD database file
#
# Track frame offsets:
#	150
#	23792
#	39874
#	68712
#	79851
#	103113
#	132139
#	152337
#	181575
#	198819
#	218500
#	230893
#	246491
#
# Disc length: 3452 seconds
#
# Revision: 0
# Processed by: cddbd v1.5.2PL0 Copyright (c) Steve Scherf et al.
# Submitted via: CDex 1.51
#
DISCID=9f0d7a0d
DTITLE=Ida Kelarova and Skampovo Kvarteto - Romska Balada
DYEAR=2010
DGENRE=Jazz
TTITLE0=Mamo
TTITLE1=Merav
TTITLE2=Amare Chavore
TTITLE3=Devloro Miro
TTITLE4=Bijav
TTITLE5=Sun Devloro
TTITLE6=O Phral
TTITLE7=Mri Chaj
TTITLE8=Bares Tut Kamav
TTITLE9=Mamo Miri
TTITLE10=Kamiben Miro
TTITLE11=Soske
TTITLE12=Mamo
EXTD=YEAR: 2010
EXTT0=
EXTT1=
EXTT2=
EXTT3=
EXTT4=
EXTT5=
EXTT6=
EXTT7=
EXTT8=
EXTT9=
EXTT10=
EXTT11=
EXTT12=
PLAYORDER=
